<svg width="559" height="496" viewBox="0 0 559 496" fill="none" xmlns="http://www.w3.org/2000/svg">
<path d="M291.488 496C428.455 496 539.488 384.967 539.488 248C539.488 111.033 428.455 0 291.488 0C154.522 0 43.4883 111.033 43.4883 248C43.4883 384.967 154.522 496 291.488 496Z" fill="white"/>
<path d="M440.537 91.7819C440.537 93.506 441.048 95.1913 442.006 96.6248C442.964 98.0584 444.325 99.1756 445.918 99.8354C447.511 100.495 449.264 100.668 450.955 100.331C452.646 99.9951 454.199 99.1649 455.418 97.9458C456.637 96.7267 457.467 95.1735 457.804 93.4825C458.14 91.7916 457.967 90.0389 457.308 88.4461C456.648 86.8533 455.531 85.4919 454.097 84.534C452.664 83.5762 450.978 83.0649 449.254 83.0649C446.942 83.0652 444.725 83.9837 443.091 85.6184C441.456 87.2531 440.537 89.4701 440.537 91.7819" fill="#F4F4F4"/>
<path d="M173.16 436.678C172.695 436.678 172.242 436.531 171.865 436.257C171.489 435.984 171.209 435.598 171.066 435.155L147.728 363.081L58.6373 382.337C58.2299 382.425 57.8058 382.396 57.4144 382.253C57.023 382.109 56.6804 381.858 56.4265 381.527C56.1727 381.196 56.0179 380.8 55.9803 380.385C55.9427 379.97 56.0239 379.553 56.2143 379.182L97.9833 297.693L49.2203 265.318C48.8894 265.099 48.624 264.794 48.4524 264.436C48.2808 264.077 48.2093 263.68 48.2455 263.284C48.2817 262.889 48.4242 262.511 48.658 262.19C48.8918 261.869 49.208 261.617 49.5733 261.461L108.541 236.261L84.6413 167.638C84.4969 167.223 84.4798 166.775 84.5923 166.351C84.7048 165.926 84.9417 165.545 85.2725 165.257C85.6033 164.968 86.0128 164.785 86.4485 164.731C86.8842 164.677 87.3261 164.755 87.7173 164.954L157.15 200.283L190.713 139.231C190.909 138.874 191.201 138.578 191.555 138.377C191.909 138.175 192.312 138.076 192.719 138.091C193.126 138.105 193.522 138.232 193.861 138.458C194.2 138.684 194.47 138.999 194.64 139.369L224.384 203.885L300.353 164.302C300.738 164.101 301.174 164.019 301.606 164.065C302.038 164.111 302.446 164.284 302.78 164.562C303.113 164.84 303.357 165.211 303.481 165.627C303.604 166.044 303.602 166.487 303.473 166.902L276.168 256.07L355.668 310.145C356.012 310.379 356.283 310.705 356.449 311.086C356.615 311.466 356.67 311.887 356.607 312.297C356.544 312.708 356.366 313.093 356.094 313.407C355.822 313.721 355.466 313.951 355.068 314.071L267.428 340.556L278.177 407.423C278.243 407.83 278.193 408.247 278.033 408.627C277.873 409.007 277.61 409.335 277.273 409.572C276.936 409.81 276.539 409.948 276.127 409.971C275.715 409.993 275.305 409.9 274.944 409.701L217.532 378.161L174.926 435.783C174.722 436.06 174.455 436.285 174.148 436.439C173.841 436.594 173.501 436.675 173.157 436.675M149.213 358.308C149.678 358.308 150.131 358.456 150.507 358.729C150.883 359.003 151.162 359.389 151.305 359.831L173.939 429.731L215.145 374.005C215.462 373.576 215.923 373.277 216.444 373.163C216.964 373.049 217.508 373.127 217.975 373.384L273.125 403.684L262.787 339.365C262.702 338.839 262.811 338.3 263.093 337.848C263.375 337.397 263.811 337.062 264.321 336.908L349.391 311.201L272.357 258.807C271.969 258.543 271.675 258.161 271.519 257.717C271.363 257.274 271.353 256.792 271.491 256.343L297.732 170.643L224.376 208.866C224.112 209.004 223.823 209.086 223.526 209.109C223.229 209.131 222.93 209.093 222.648 208.997C222.366 208.901 222.107 208.748 221.886 208.549C221.664 208.349 221.486 208.107 221.361 207.836L192.468 145.17L159.98 204.27C159.705 204.771 159.245 205.145 158.699 205.313C158.152 205.481 157.562 205.43 157.052 205.17L90.5943 171.356L113.373 236.756C113.557 237.283 113.534 237.859 113.308 238.37C113.083 238.88 112.672 239.285 112.159 239.504L55.0513 263.904L102.051 295.111C102.502 295.41 102.826 295.865 102.963 296.388C103.1 296.911 103.039 297.466 102.792 297.947L62.2473 377.047L148.739 358.353C148.892 358.32 149.049 358.303 149.205 358.303" fill="#F4F4F4"/>
<path d="M233.232 304.358V448.945C233.233 452.25 234.546 455.42 236.883 457.757C239.22 460.094 242.389 461.407 245.694 461.407H435.263C438.568 461.407 441.738 460.094 444.075 457.757C446.412 455.42 447.725 452.25 447.725 448.945V304.358H233.232Z" fill="#F4F4F4"/>
<path d="M447.727 286.693H233.232V313.382H447.727V286.693Z" fill="black"/>
<path d="M251.501 299.097C251.501 300.138 251.192 301.155 250.614 302.021C250.036 302.886 249.214 303.561 248.253 303.959C247.291 304.358 246.233 304.462 245.212 304.259C244.191 304.056 243.254 303.555 242.518 302.819C241.782 302.083 241.281 301.145 241.078 300.124C240.875 299.103 240.979 298.045 241.377 297.084C241.776 296.122 242.45 295.3 243.316 294.722C244.181 294.144 245.199 293.836 246.24 293.836C247.635 293.836 248.973 294.39 249.96 295.377C250.946 296.363 251.501 297.702 251.501 299.097Z" fill="#F4F4F4"/>
<path d="M273.346 299.097C273.346 300.137 273.038 301.155 272.46 302.02C271.882 302.885 271.06 303.559 270.099 303.957C269.138 304.356 268.08 304.46 267.059 304.257C266.039 304.054 265.101 303.553 264.365 302.817C263.63 302.082 263.129 301.144 262.925 300.124C262.722 299.103 262.826 298.046 263.224 297.084C263.622 296.123 264.297 295.301 265.162 294.723C266.027 294.145 267.044 293.836 268.084 293.836C268.775 293.836 269.459 293.972 270.098 294.236C270.736 294.5 271.316 294.888 271.805 295.376C272.294 295.865 272.681 296.445 272.946 297.083C273.21 297.722 273.346 298.406 273.346 299.097Z" fill="#FCCD56"/>
<path d="M295.198 299.097C295.198 300.137 294.889 301.155 294.311 302.02C293.733 302.885 292.911 303.559 291.95 303.957C290.989 304.356 289.931 304.46 288.91 304.257C287.89 304.054 286.952 303.553 286.217 302.817C285.481 302.081 284.98 301.144 284.777 300.123C284.574 299.103 284.678 298.045 285.076 297.084C285.474 296.122 286.149 295.301 287.014 294.723C287.879 294.144 288.896 293.836 289.937 293.836C291.332 293.836 292.67 294.39 293.657 295.377C294.643 296.363 295.198 297.702 295.198 299.097Z" fill="#FF6464"/>
<path d="M511.254 297.38C509.623 287.388 506.361 277.733 501.598 268.799C497.113 260.385 491.262 252.775 484.284 246.277C477.417 239.815 469.33 234.788 460.495 231.491C459.367 231.084 458.203 230.78 457.02 230.582C456.82 230.576 456.623 230.636 456.46 230.751C456.296 230.866 456.174 231.031 456.112 231.222C456.05 231.412 456.051 231.617 456.115 231.807C456.18 231.997 456.303 232.16 456.468 232.274C458.568 233.308 460.774 234.097 462.907 235.074C464.968 236.02 466.992 237.04 468.959 238.174C472.938 240.464 476.697 243.116 480.188 246.096C487.177 252.112 493.105 259.261 497.723 267.243C502.563 275.571 506.018 284.63 507.951 294.067C510.15 305.104 510.635 316.413 509.391 327.598C508.159 338.902 505.537 350.011 501.585 360.673C501.102 361.994 500.602 363.307 500.085 364.613C499.485 366.132 501.885 366.913 502.485 365.413C506.836 354.612 509.871 343.327 511.522 331.801C513.176 320.381 513.085 308.777 511.252 297.385" fill="#0D0D0D"/>
<path d="M418.7 191.746C418.816 180.536 414.891 169.736 408.646 160.53C401.784 150.415 392.131 142.558 381.495 136.676C370.387 130.692 358.549 126.175 346.278 123.236C335.546 120.389 324.455 119.13 313.357 119.501C302.638 120.022 291.857 122.523 282.657 128.215C281.537 128.908 280.457 129.645 279.404 130.437C278.842 130.86 279.48 131.837 280.091 131.469C284.565 128.733 289.348 126.54 294.34 124.936C299.359 123.39 304.528 122.386 309.76 121.942C320.47 121.179 331.233 122.049 341.68 124.522C353.449 127.077 364.871 131.028 375.704 136.289C386.559 141.636 396.656 148.836 404.174 158.415C410.757 166.8 415.362 176.945 416.217 187.645C416.323 188.963 416.356 190.288 416.343 191.61C416.328 193.122 418.684 193.27 418.699 191.745" fill="#0D0D0D"/>
<path d="M549.995 397.753C547.599 399.396 544.877 400.503 542.014 400.998C541.459 401.103 540.889 401.188 540.324 401.263C540.285 401.277 540.245 401.289 540.204 401.298C538.345 401.556 536.47 401.681 534.593 401.673C532.803 401.708 531.013 401.744 529.222 401.783C525.561 401.858 521.9 401.823 518.24 401.898C511.664 402.043 505.083 402.238 498.507 402.268C496.932 402.273 495.346 402.288 493.771 402.193C492.896 402.143 492.031 402.013 491.165 401.928C490.38 401.853 489.58 401.873 488.795 401.858C485.554 401.798 482.309 401.838 479.064 401.848C472.578 401.868 466.09 401.88 459.6 401.883C456.315 401.883 453.029 401.908 449.744 401.873C448.124 401.858 446.503 401.863 444.883 401.823C444.052 401.803 443.223 401.758 442.392 401.723C441.633 401.668 440.876 401.572 440.127 401.433C435.072 408.606 428.901 414.923 421.849 420.146C421.645 420.322 421.389 420.427 421.121 420.444C420.852 420.462 420.584 420.392 420.359 420.245C420.133 420.098 419.961 419.881 419.87 419.628C419.778 419.375 419.771 419.099 419.849 418.841C420.834 415.746 421.784 412.635 422.7 409.509C423.42 407.049 424.065 404.538 424.89 402.098C424.89 401.932 424.921 401.768 424.98 401.613C425.024 401.446 425.095 401.287 425.19 401.143C425.21 401.113 425.225 401.073 425.245 401.038C425.318 400.874 425.378 400.706 425.425 400.533C425.356 400.523 425.289 400.503 425.225 400.473C425.151 400.436 425.084 400.387 425.025 400.328C422.685 400.613 420.339 400.833 417.984 401.033C415.048 401.283 412.108 401.478 409.172 401.698C406.567 401.888 403.926 402.223 401.316 402.153C398.918 402.215 396.577 401.409 394.725 399.883C393.165 398.325 392.194 396.272 391.979 394.077C391.728 391.617 391.661 389.141 391.779 386.671C391.805 383.75 391.833 380.828 391.864 377.904C391.92 372.063 391.983 366.222 392.054 360.381C392.104 356.1 392.109 351.545 393.854 347.554C394.619 345.659 395.867 343.999 397.474 342.738C399.558 341.298 402.009 340.483 404.54 340.388C407.34 340.163 410.156 340.203 412.957 340.143L421.769 339.968C427.703 339.843 433.636 339.709 439.569 339.568C451.321 339.301 463.075 339.041 474.83 338.788C486.642 338.543 498.451 338.3 510.256 338.058C516.19 337.938 522.121 337.816 528.049 337.693L536.866 337.513C539.288 337.384 541.716 337.421 544.132 337.623C546.438 337.802 548.658 338.573 550.578 339.863C552.495 341.349 553.879 343.416 554.524 345.754C555.157 348.126 555.568 350.552 555.75 353C556.09 355.881 556.397 358.763 556.67 361.646C557.07 365.857 557.825 370.528 558.12 375.174C558.67 383.78 557.665 392.312 549.994 397.748" fill="white"/>
<path d="M558.127 375.18C557.827 370.532 557.077 365.863 556.676 361.651C556.401 358.766 556.094 355.884 555.756 353.005C555.574 350.557 555.164 348.131 554.531 345.759C553.886 343.421 552.502 341.355 550.585 339.868C548.665 338.578 546.445 337.807 544.139 337.627C541.723 337.425 539.295 337.389 536.873 337.517L528.057 337.697C522.124 337.822 516.193 337.943 510.264 338.062C498.458 338.307 486.649 338.551 474.838 338.792C463.086 339.032 451.333 339.292 439.577 339.572C433.644 339.705 427.711 339.839 421.777 339.972L412.965 340.147C410.165 340.207 407.344 340.167 404.548 340.392C402.017 340.487 399.566 341.303 397.482 342.742C395.875 344.003 394.627 345.664 393.862 347.558C392.117 351.549 392.112 356.104 392.062 360.385C391.996 366.226 391.932 372.067 391.872 377.908C391.842 380.829 391.814 383.751 391.787 386.675C391.669 389.145 391.736 391.621 391.987 394.081C392.202 396.276 393.173 398.329 394.733 399.887C396.585 401.412 398.926 402.218 401.324 402.157C403.934 402.227 406.575 401.892 409.18 401.702C412.115 401.482 415.056 401.287 417.992 401.037C420.348 400.837 422.692 400.62 425.034 400.33C425.141 400.442 425.281 400.515 425.434 400.538C425.388 400.711 425.329 400.88 425.257 401.044C425.237 401.079 425.22 401.115 425.199 401.144C425.094 401.306 425.02 401.487 424.981 401.677C424.924 401.81 424.896 401.955 424.901 402.1C424.074 404.537 423.433 407.051 422.711 409.511C421.797 412.632 420.846 415.743 419.858 418.842C419.783 419.099 419.792 419.374 419.885 419.625C419.978 419.876 420.15 420.091 420.374 420.237C420.599 420.383 420.865 420.452 421.132 420.435C421.399 420.418 421.654 420.315 421.858 420.142C428.908 414.917 435.078 408.6 440.136 401.429C440.885 401.566 441.64 401.663 442.399 401.72C443.229 401.753 444.059 401.798 444.889 401.82C446.509 401.858 448.132 401.854 449.752 401.87C453.037 401.904 456.322 401.882 459.607 401.882C466.095 401.882 472.584 401.869 479.072 401.844C482.315 401.834 485.56 401.793 488.803 401.856C489.59 401.871 490.387 401.849 491.17 401.925C492.04 402.01 492.904 402.14 493.777 402.191C495.351 402.283 496.938 402.272 498.514 402.264C505.092 402.233 511.669 402.038 518.245 401.896C521.906 401.817 525.569 401.852 529.23 401.777L534.6 401.667C536.478 401.677 538.354 401.552 540.213 401.292C540.252 401.284 540.291 401.274 540.329 401.261C540.897 401.186 541.464 401.1 542.018 400.996C544.882 400.5 547.605 399.392 550.001 397.746C557.674 392.313 558.68 383.779 558.129 375.176M554.009 374.626C553.968 376.361 553.9 378.098 553.778 379.826C553.672 382.671 553.215 385.493 552.416 388.226C551.76 390.521 550.479 392.587 548.716 394.196C547.583 395.082 546.354 395.839 545.053 396.453C544.906 396.52 544.76 396.589 544.612 396.653C544.464 396.717 544.327 396.77 544.184 396.826L543.949 396.918C543.32 397.148 542.674 397.34 542.027 397.513C541.266 397.713 540.499 397.897 539.727 398.065C538.819 398.237 537.906 398.393 536.995 398.582C536.464 398.699 535.98 398.803 535.495 398.896C534.995 398.996 534.495 399.057 534.009 399.181C532.746 399.168 531.484 399.172 530.237 399.147C526.954 399.08 523.67 399.065 520.386 399.036C513.905 398.98 507.425 398.683 500.943 398.653C499.321 398.645 497.699 398.621 496.077 398.659C494.385 398.698 492.731 398.874 491.048 399.001C487.875 399.239 484.639 399.081 481.459 399.07C474.889 399.049 468.319 399.034 461.749 399.025C458.09 399.025 454.429 398.998 450.77 399.025C448.981 399.039 447.191 399.063 445.403 399.081C444.495 399.09 443.585 399.141 442.678 399.181C442.586 399.104 442.485 399.037 442.378 398.981C442.144 398.856 441.903 398.745 441.656 398.648C441.259 398.505 440.838 398.437 440.416 398.448C440.222 398.456 440.03 398.484 439.841 398.531C439.624 398.507 439.404 398.545 439.207 398.639C439.01 398.734 438.844 398.882 438.727 399.067C434.416 405.336 429.25 410.972 423.38 415.812C423.952 413.931 424.512 412.047 425.06 410.16C425.752 407.76 426.483 405.344 427.002 402.892C427.034 402.867 427.066 402.845 427.097 402.816C427.221 402.693 427.333 402.559 427.433 402.416C427.588 402.209 427.713 401.982 427.805 401.741C427.889 401.494 427.949 401.239 427.983 400.98C428.012 400.818 428.025 400.654 428.021 400.489C428.026 399.978 427.897 399.475 427.647 399.03C427.569 398.885 427.475 398.748 427.369 398.621C427.255 398.494 427.115 398.393 426.959 398.324C426.803 398.255 426.634 398.22 426.463 398.221C420.806 398.171 415.23 398.575 409.654 398.891C407.108 399.036 404.538 399.291 401.983 399.246C400.133 399.216 397.978 398.971 396.627 397.546C395.447 396.085 394.814 394.258 394.837 392.38C394.682 389.89 394.827 387.364 394.857 384.869C394.933 379.298 395.003 373.727 395.067 368.156L395.167 359.88C395.159 357.799 395.266 355.719 395.487 353.649C395.907 350.279 397.007 346.413 400.193 344.649C402.263 343.504 404.704 343.409 407.014 343.349C409.764 343.289 412.514 343.239 415.27 343.184C420.87 343.073 426.475 342.967 432.083 342.864C443.345 342.664 454.607 342.494 465.869 342.274L499.495 341.614C510.707 341.389 521.918 341.167 533.126 340.949C535.741 340.899 538.367 340.789 540.983 340.819C543.053 340.749 545.117 341.061 547.074 341.739C551.239 343.374 551.805 348.07 552.285 351.966C553.067 358.36 553.7 364.772 554.185 371.201C554.064 372.337 554.054 373.491 554.027 374.621" fill="#1D1D1B"/>
<path d="M530.466 365.746C528.88 362.964 526.966 359.852 523.466 359.477C522.025 359.32 520.577 359.713 519.413 360.577C518.593 361.207 518.045 362.126 517.881 363.147C517.779 363.119 517.673 363.107 517.568 363.112C510.851 363.423 504.126 363.612 497.406 363.838C496.647 362.496 495.824 361.188 494.938 359.915C494.812 359.777 494.657 359.67 494.483 359.602C494.31 359.533 494.124 359.505 493.938 359.519C493.752 359.534 493.572 359.59 493.411 359.685C493.25 359.779 493.113 359.909 493.01 360.064C492.133 361.567 491.112 362.98 489.961 364.285C488.555 364.44 487.16 364.682 485.784 365.011C487.146 363.154 488.51 361.299 489.876 359.445C489.97 359.298 490.03 359.132 490.05 358.958C490.07 358.785 490.051 358.609 489.993 358.444C489.935 358.279 489.84 358.13 489.716 358.007C489.592 357.885 489.441 357.792 489.276 357.736C486.211 357.013 483.023 356.988 479.948 357.663C477.037 358.019 474.189 358.779 471.487 359.919C470.28 360.458 469.22 361.279 468.395 362.313C467.571 363.346 467.006 364.562 466.748 365.859C466.583 367.017 466.774 368.197 467.297 369.243C467.82 370.289 468.649 371.15 469.674 371.713C471.088 372.467 472.593 373.035 474.152 373.404C473.881 373.947 473.652 374.51 473.466 375.087C473.363 375.409 473.39 375.759 473.542 376.061C473.694 376.363 473.958 376.594 474.278 376.703C476.166 377.163 478.057 377.612 479.946 378.067C479.946 378.104 479.946 378.143 479.941 378.18C479.764 379.331 478.541 379.885 477.598 380.3C476.321 380.855 475.013 381.335 473.68 381.736C470.968 382.569 468.168 383.082 465.337 383.263C462.496 383.435 459.645 383.289 456.837 382.827C454.089 382.405 451.411 381.619 448.871 380.489C448.367 380.288 447.913 379.981 447.538 379.589C447.295 379.321 447.147 378.98 447.117 378.619C447.163 378.189 447.299 377.774 447.518 377.402C447.736 377.029 448.031 376.707 448.384 376.457C450.159 374.913 452.378 374.787 454.584 374.369C456.79 373.951 459.104 373.211 460.444 371.288C461.063 370.393 461.389 369.328 461.377 368.24C461.364 367.152 461.013 366.095 460.373 365.215C457.34 360.799 451.23 360.109 446.337 359.985C443.182 359.904 440.027 360.172 436.931 360.785L436.722 360.826C437.037 360.284 437.274 359.701 437.428 359.094C437.475 358.942 437.482 358.781 437.448 358.626C437.413 358.47 437.339 358.327 437.233 358.209C437.126 358.091 436.991 358.003 436.84 357.953C436.689 357.903 436.528 357.894 436.372 357.925C432.529 358.888 428.55 359.741 425.114 361.804C421.948 363.59 419.61 366.549 418.604 370.042C418.091 371.976 418.196 374.023 418.904 375.895C419.282 376.89 420.749 376.121 420.375 375.133C419.252 372.167 420.369 368.888 422.218 366.481C424.308 363.76 427.531 362.186 430.734 361.167C432.134 360.723 433.547 360.372 434.975 360.067C434.599 360.618 434.15 361.117 433.642 361.549C432.038 361.938 430.588 362.8 429.481 364.023C429.423 364.094 429.372 364.169 429.32 364.242L428.986 364.422C426.047 366.022 423.078 367.948 422.099 371.351C421.656 372.969 421.606 374.67 421.951 376.312C422.296 377.954 423.027 379.49 424.084 380.793C425.194 382.126 426.678 383.096 428.344 383.576C430.011 384.056 431.783 384.025 433.432 383.487C437.261 382.275 440.454 378.898 440.64 374.766C440.646 374.49 440.545 374.221 440.359 374.017C440.173 373.812 439.916 373.687 439.64 373.666C437.152 373.273 434.386 372.854 432.381 371.195C430.94 370.003 429.881 367.74 430.681 365.906C430.72 365.821 430.763 365.739 430.811 365.659C432.039 365.017 433.216 364.282 434.331 363.459C435.254 363.186 436.21 362.988 437.139 362.801C440.094 362.202 443.107 361.936 446.122 362.007C448.847 361.953 451.561 362.346 454.159 363.17C455.999 363.855 458.059 365.031 458.981 366.851C459.16 367.228 459.26 367.637 459.276 368.054C459.292 368.47 459.224 368.886 459.075 369.275C458.926 369.665 458.7 370.02 458.41 370.32C458.121 370.62 457.773 370.858 457.389 371.02C455.537 371.956 453.314 372.064 451.3 372.408C450.119 372.595 448.987 373.013 447.968 373.638C446.948 374.262 446.062 375.082 445.36 376.049C445.014 376.555 444.779 377.129 444.67 377.732C444.56 378.336 444.579 378.955 444.725 379.551C444.871 380.146 445.141 380.704 445.516 381.189C445.892 381.673 446.365 382.074 446.906 382.363C448.084 383.013 449.329 383.536 450.618 383.923C451.914 384.359 453.233 384.723 454.569 385.012C457.355 385.624 460.199 385.933 463.052 385.932C468.678 386.015 474.244 384.777 479.304 382.316C480.525 381.757 481.508 380.784 482.08 379.569C482.203 379.274 482.287 378.964 482.331 378.647C486.704 379.692 491.079 380.723 495.457 381.74C496.917 382.078 498.595 382.678 500.103 382.305C500.857 382.088 501.51 381.61 501.945 380.956C502.38 380.303 502.569 379.517 502.478 378.737C502.345 377.151 502.044 375.584 501.578 374.063C501.153 372.481 500.642 370.923 500.049 369.396C499.634 368.322 499.17 367.273 498.668 366.244L506.21 365.959C509.428 365.837 512.646 365.716 515.865 365.622C515.45 367.066 515.037 368.51 514.626 369.955C514.073 371.91 513.389 373.874 513.009 375.871C512.672 377.64 512.909 379.554 514.499 380.66C515.164 381.07 515.922 381.304 516.702 381.341C517.482 381.379 518.259 381.217 518.96 380.873C522.526 379.285 522.49 374.612 522.101 371.349C521.817 369.384 521.337 367.452 520.669 365.583C520.317 364.833 520.239 363.984 520.449 363.183C520.63 362.803 520.942 362.502 521.328 362.334C521.881 362.069 522.497 361.962 523.107 362.025C523.782 362.097 524.425 362.353 524.965 362.764C526.327 363.906 527.432 365.324 528.207 366.924C529.016 368.344 531.284 367.181 530.469 365.752M435.453 374.952C436.429 375.216 437.419 375.429 438.417 375.59C438.111 376.893 437.485 378.099 436.594 379.098C435.703 380.097 434.577 380.857 433.317 381.309C432 381.85 430.545 381.958 429.163 381.616C427.781 381.274 426.543 380.501 425.63 379.409C424.762 378.337 424.171 377.069 423.909 375.715C423.648 374.36 423.723 372.963 424.13 371.645C424.83 369.519 426.554 368.145 428.41 367.021C428.377 368.286 428.688 369.536 429.31 370.638C429.999 371.727 430.896 372.669 431.951 373.409C433.006 374.149 434.197 374.673 435.456 374.95M494.068 362.988C494.268 363.306 494.468 363.627 494.657 363.951C494.221 363.97 493.785 363.992 493.348 364.016C493.596 363.679 493.836 363.336 494.068 362.988ZM486.853 367.303C485.251 368.623 483.504 369.754 481.644 370.675L483.254 368.475C484.416 367.976 485.621 367.583 486.854 367.303M477.812 374.932L476.412 374.602C476.469 374.48 476.523 374.356 476.584 374.237C477.013 374.429 477.423 374.662 477.808 374.932M470.442 369.687C469.634 369.123 469.081 368.263 468.903 367.294C468.725 366.324 468.937 365.324 469.493 364.51C470.807 362.28 473.319 361.377 475.714 360.81C478.524 360.058 481.404 359.597 484.308 359.435C485.186 359.412 486.064 359.462 486.933 359.585C485.244 361.842 483.551 364.097 481.855 366.348C480.772 366.832 479.738 367.419 478.768 368.101C477.443 369.033 476.28 370.175 475.324 371.482C473.603 371.181 471.95 370.574 470.444 369.688M499.453 379.776C499 379.835 498.54 379.796 498.104 379.66C497.295 379.477 496.488 379.287 495.68 379.102C492.445 378.369 489.212 377.623 485.98 376.866C484.591 376.542 483.204 376.209 481.816 375.881C481.441 375.164 480.942 374.519 480.342 373.976C484.46 372.378 488.163 369.87 491.175 366.638C492.768 366.487 494.37 366.414 495.969 366.352C497.725 369.838 498.98 373.555 499.697 377.392C499.797 377.952 500.284 379.572 499.451 379.776M519.494 375.825C519.376 376.542 519.084 377.22 518.643 377.798C518.341 378.172 517.921 378.433 517.453 378.541C517.002 378.679 516.517 378.652 516.084 378.464C516.071 378.449 515.95 378.37 515.894 378.33C515.907 378.33 515.741 378.156 515.72 378.122C515.598 377.889 515.529 377.63 515.52 377.367C515.542 376.488 515.703 375.618 515.996 374.789L516.883 371.479C517.34 369.774 517.793 368.069 518.24 366.362C518.382 366.797 518.54 367.228 518.668 367.662C518.951 368.6 519.176 369.555 519.341 370.521C519.705 372.265 519.756 374.059 519.493 375.821" fill="#D6D6D6"/>
<path d="M387.483 138.891C387.482 140.284 387.069 141.646 386.295 142.805C385.521 143.963 384.42 144.866 383.133 145.399C381.846 145.932 380.429 146.071 379.063 145.8C377.696 145.528 376.441 144.857 375.456 143.872C374.471 142.886 373.8 141.631 373.528 140.265C373.256 138.898 373.396 137.482 373.929 136.194C374.462 134.907 375.365 133.807 376.523 133.033C377.681 132.258 379.043 131.845 380.437 131.845C382.305 131.845 384.097 132.587 385.419 133.909C386.74 135.23 387.483 137.022 387.483 138.891Z" fill="#CCCCCC"/>
<path d="M503.686 262.655C503.686 264.048 503.273 265.41 502.498 266.569C501.724 267.727 500.624 268.63 499.337 269.164C498.049 269.697 496.633 269.836 495.266 269.564C493.9 269.293 492.644 268.622 491.659 267.636C490.674 266.651 490.003 265.396 489.731 264.029C489.459 262.663 489.599 261.246 490.132 259.959C490.665 258.672 491.568 257.571 492.727 256.797C493.885 256.023 495.247 255.61 496.641 255.61C498.509 255.61 500.301 256.352 501.622 257.674C502.943 258.995 503.686 260.786 503.686 262.655Z" fill="#CCCCCC"/>
<path d="M0 95.3081C0 97.0321 0.511234 98.7175 1.46907 100.151C2.42691 101.584 3.78833 102.702 5.38115 103.362C6.97397 104.021 8.72667 104.194 10.4176 103.858C12.1085 103.521 13.6617 102.691 14.8808 101.472C16.0999 100.253 16.9301 98.6996 17.2665 97.0087C17.6028 95.3177 17.4302 93.565 16.7704 91.9722C16.1107 90.3794 14.9934 89.018 13.5599 88.0602C12.1264 87.1023 10.4411 86.5911 8.717 86.5911C6.40518 86.5913 4.18813 87.5098 2.55344 89.1445C0.918739 90.7792 0.000265162 92.9963 0 95.3081Z" fill="white"/>
<path d="M159.279 252.939C159.279 254.663 159.791 256.348 160.748 257.782C161.706 259.215 163.068 260.333 164.66 260.992C166.253 261.652 168.006 261.825 169.697 261.488C171.388 261.152 172.941 260.322 174.16 259.103C175.379 257.884 176.209 256.33 176.546 254.64C176.882 252.949 176.71 251.196 176.05 249.603C175.39 248.01 174.273 246.649 172.839 245.691C171.406 244.733 169.72 244.222 167.996 244.222C165.684 244.222 163.467 245.14 161.832 246.775C160.198 248.41 159.279 250.627 159.279 252.939Z" fill="#FCCD56"/>
<path d="M48.2402 42.563V196.912C48.2402 200.217 49.5532 203.387 51.8903 205.724C54.2273 208.061 57.3971 209.374 60.7022 209.374H250.272C253.577 209.374 256.747 208.061 259.084 205.724C261.421 203.387 262.734 200.217 262.734 196.912V42.563H48.2402Z" fill="#00FFE2"/>
<path d="M262.735 32.1641H48.2402V58.8531H262.735V32.1641Z" fill="#DDDDDD"/>
<path d="M349.065 89.5591L231.271 73.5941L255.782 64.8831L349.065 89.5591Z" fill="#F4F4F4"/>
<path d="M311.819 97.465H306.581C308.056 94.927 308.671 92.556 307.239 91.089C302.973 86.716 290.71 97.465 290.71 97.465L270.469 97.508L262.476 117.808L233.738 156.244L264.419 173.844C273.275 159.744 282.547 131.031 282.547 131.031C289.603 129.011 296.097 109.804 296.855 108.823C297.184 108.396 300.009 105.802 302.737 102.65C302.737 102.65 307.888 109.233 311.013 107.684C315.278 105.569 311.813 97.457 311.813 97.457" fill="#FFB6B6"/>
<path d="M267.239 170.494C266.874 170.494 266.515 170.403 266.194 170.23C265.873 170.056 265.6 169.806 265.4 169.501C265.2 169.196 265.078 168.846 265.047 168.483C265.016 168.119 265.075 167.754 265.221 167.419C272.354 150.934 280.421 130.439 280.501 130.234C280.624 129.92 280.819 129.638 281.069 129.411C281.319 129.184 281.618 129.017 281.943 128.924C282.997 128.624 285.26 127.245 288.57 121.424C290.53 117.83 292.273 114.122 293.789 110.319C294.121 109.327 294.566 108.377 295.115 107.486C295.489 107.05 295.888 106.634 296.309 106.242C307.679 94.956 305.752 92.717 305.664 92.627C304.085 91.009 297.259 95.061 292.21 99.764C291.783 100.162 291.215 100.374 290.632 100.353C290.049 100.332 289.497 100.081 289.1 99.654C288.702 99.227 288.49 98.6595 288.51 98.0762C288.531 97.493 288.783 96.9418 289.21 96.544C291.387 94.5569 293.719 92.7465 296.185 91.13C301.963 87.417 306.212 86.887 308.815 89.553C314.007 94.876 303.778 105.029 299.415 109.365C299.134 109.644 298.824 109.953 298.66 110.122C298.501 110.459 298.16 111.275 297.86 112.006C294.16 120.925 289.677 130.231 284.245 132.749C282.6 136.905 275.572 154.591 269.265 169.168C269.094 169.562 268.812 169.898 268.453 170.134C268.094 170.37 267.673 170.495 267.244 170.495" fill="black"/>
<path d="M241.409 148.193C241.001 148.193 240.601 148.079 240.254 147.864C239.907 147.649 239.626 147.342 239.443 146.977C239.261 146.612 239.183 146.204 239.22 145.797C239.256 145.39 239.405 145.002 239.649 144.675L260.494 116.794L266.742 96.852C266.917 96.295 267.305 95.8302 267.822 95.5596C268.34 95.2891 268.943 95.2351 269.5 95.4095C270.057 95.5839 270.522 95.9724 270.792 96.4895C271.063 97.0066 271.117 97.61 270.942 98.167L264.582 118.467C264.508 118.705 264.394 118.928 264.244 119.127L243.169 147.308C242.964 147.582 242.698 147.805 242.392 147.959C242.085 148.112 241.747 148.191 241.404 148.191" fill="black"/>
<path d="M275.741 112.365C275.285 112.366 274.84 112.225 274.467 111.961C274.095 111.698 273.813 111.326 273.662 110.896C273.511 110.465 273.496 109.999 273.622 109.56C273.747 109.122 274.006 108.733 274.362 108.448L289.334 96.435C289.559 96.2542 289.818 96.1195 290.095 96.0387C290.373 95.9579 290.663 95.9325 290.951 95.9641C291.238 95.9956 291.516 96.0834 291.77 96.2224C292.023 96.3615 292.246 96.5491 292.427 96.7745C292.608 96.9999 292.743 97.2587 292.823 97.5362C292.904 97.8136 292.93 98.1043 292.898 98.3916C292.867 98.6788 292.779 98.957 292.64 99.2104C292.501 99.4637 292.313 99.6872 292.088 99.868L277.116 111.881C276.726 112.195 276.241 112.366 275.741 112.365Z" fill="#441E2D"/>
<path d="M238.724 144.825L235.161 149.895C228.25 140.771 206.369 112.983 193.696 104.031C186.154 98.5586 176.853 96.0709 167.586 97.047L117.876 93.164C112.502 92.879 96.9761 95.878 90.4021 101.041C77.9021 110.851 58.4211 143.001 48.2441 160.493V197.983C48.2441 204.258 53.9221 209.43 60.1971 209.373H71.1761L86.8141 173.022L81.9491 209.373H170.903L175.674 182.411L186.991 168.245C186.991 168.245 199.852 177.48 216.931 187.501C244.317 203.567 257.831 192.179 268.54 169.88L238.724 144.825Z" fill="#2D1E44"/>
<path d="M74.9155 208.704C74.5527 208.704 74.1956 208.615 73.8758 208.443C73.556 208.272 73.2836 208.024 73.0828 207.722C72.8819 207.42 72.7589 207.073 72.7247 206.712C72.6904 206.351 72.746 205.986 72.8865 205.652L101.824 136.591C102.049 136.053 102.479 135.626 103.019 135.405C103.559 135.184 104.165 135.186 104.703 135.412C105.241 135.637 105.668 136.067 105.889 136.607C106.11 137.147 106.108 137.753 105.883 138.291L76.9445 207.349C76.777 207.749 76.4948 208.091 76.1334 208.332C75.772 208.572 75.3476 208.7 74.9135 208.7" fill="#FF6464"/>
<path d="M347.293 90.949C347.006 90.931 230.986 75.776 230.986 75.776C230.496 75.7126 230.041 75.4859 229.695 75.1324C229.35 74.7789 229.133 74.3192 229.081 73.8276C229.028 73.336 229.143 72.841 229.406 72.4225C229.67 72.004 230.066 71.6865 230.532 71.521L255.043 62.809C255.459 62.6608 255.909 62.6409 256.336 62.752L347.845 86.619C348.364 86.7531 348.816 87.0718 349.116 87.5154C349.417 87.9589 349.545 88.4968 349.477 89.0282C349.409 89.5596 349.149 90.0479 348.747 90.4016C348.345 90.7552 347.827 90.9499 347.291 90.949M240.641 72.599L312.778 82.022L255.878 67.182L240.641 72.599Z" fill="black"/>
<path d="M347.29 90.948C346.975 90.9478 346.664 90.8796 346.377 90.748L287.331 63.771L273.031 71.135C272.512 71.4023 271.908 71.4526 271.352 71.2747C270.797 71.0968 270.334 70.7054 270.067 70.1865C269.799 69.6676 269.749 69.0637 269.927 68.5078C270.105 67.9518 270.496 67.4893 271.015 67.222L286.261 59.369C286.557 59.2167 286.884 59.1335 287.217 59.1257C287.551 59.1179 287.881 59.1857 288.184 59.324L348.204 86.748C348.66 86.9571 349.032 87.316 349.256 87.765C349.48 88.2141 349.544 88.7263 349.437 89.2168C349.33 89.7072 349.059 90.1463 348.668 90.4612C348.277 90.7761 347.79 90.9479 347.288 90.948" fill="black"/>
<path d="M140.185 205.054C139.83 205.054 139.48 204.968 139.166 204.804C138.851 204.64 138.581 204.402 138.378 204.11C138.176 203.819 138.046 203.483 138.002 203.131C137.957 202.778 137.998 202.421 138.122 202.088C138.214 201.84 147.353 177.08 150.322 160.341C153.632 141.702 147.093 122.728 147.022 122.541C146.926 122.268 146.885 121.979 146.901 121.691C146.917 121.402 146.989 121.119 147.114 120.859C147.239 120.598 147.414 120.365 147.629 120.172C147.845 119.979 148.096 119.83 148.369 119.734C148.641 119.639 148.93 119.597 149.219 119.613C149.507 119.629 149.79 119.701 150.051 119.826C150.311 119.951 150.545 120.127 150.738 120.342C150.931 120.557 151.079 120.808 151.175 121.081C151.462 121.898 158.169 141.308 154.652 161.113C151.609 178.246 142.622 202.593 142.241 203.621C142.085 204.043 141.803 204.406 141.434 204.663C141.065 204.92 140.627 205.057 140.177 205.057" fill="#FF6464"/>
<path d="M164.349 131.535C164.349 132.274 164.13 132.995 163.72 133.61C163.309 134.224 162.726 134.702 162.044 134.985C161.361 135.267 160.611 135.341 159.886 135.197C159.162 135.053 158.497 134.698 157.975 134.175C157.452 133.653 157.097 132.988 156.953 132.263C156.809 131.539 156.882 130.788 157.165 130.106C157.448 129.424 157.926 128.841 158.54 128.43C159.154 128.02 159.876 127.801 160.615 127.801C161.605 127.801 162.555 128.195 163.255 128.895C163.955 129.595 164.349 130.545 164.349 131.535Z" fill="#F4F4F4"/>
<path d="M165.855 163.383C165.855 164.121 165.636 164.843 165.225 165.457C164.815 166.071 164.232 166.55 163.55 166.833C162.867 167.115 162.117 167.189 161.392 167.045C160.668 166.901 160.003 166.545 159.48 166.023C158.958 165.501 158.603 164.836 158.458 164.111C158.314 163.387 158.388 162.636 158.671 161.954C158.954 161.272 159.432 160.689 160.046 160.278C160.66 159.868 161.382 159.649 162.121 159.649C163.111 159.649 164.061 160.042 164.761 160.743C165.461 161.443 165.855 162.393 165.855 163.383Z" fill="#F4F4F4"/>
<path d="M160.615 195.17C160.615 195.909 160.395 196.63 159.985 197.245C159.575 197.859 158.992 198.337 158.309 198.62C157.627 198.902 156.876 198.976 156.152 198.832C155.428 198.688 154.762 198.333 154.24 197.81C153.718 197.288 153.362 196.623 153.218 195.898C153.074 195.174 153.148 194.423 153.431 193.741C153.713 193.059 154.192 192.476 154.806 192.065C155.42 191.655 156.142 191.436 156.88 191.436C157.371 191.436 157.856 191.533 158.309 191.72C158.762 191.908 159.174 192.183 159.521 192.53C159.868 192.876 160.143 193.288 160.33 193.741C160.518 194.194 160.615 194.68 160.615 195.17Z" fill="#441E2D"/>
<path d="M254.378 53.257C254.088 53.2574 253.802 53.2006 253.535 53.0899C253.268 52.9792 253.026 52.8168 252.822 52.612L241.013 40.805C240.809 40.6006 240.647 40.3579 240.537 40.0909C240.426 39.8238 240.369 39.5376 240.369 39.2486C240.369 38.9596 240.426 38.6734 240.537 38.4064C240.647 38.1394 240.81 37.8968 241.014 37.6925C241.218 37.4881 241.461 37.3261 241.728 37.2155C241.995 37.1049 242.281 37.048 242.57 37.0481C242.859 37.0481 243.146 37.1051 243.413 37.2158C243.68 37.3264 243.922 37.4886 244.126 37.693L255.935 49.5C256.243 49.8076 256.453 50.1997 256.538 50.6268C256.623 51.0538 256.579 51.4965 256.413 51.8988C256.246 52.3011 255.964 52.6449 255.602 52.8867C255.24 53.1284 254.814 53.2573 254.379 53.257" fill="#F4F4F4"/>
<path d="M242.568 53.257C242.132 53.2575 241.707 53.1288 241.344 52.8871C240.982 52.6454 240.7 52.3016 240.533 51.8993C240.366 51.4969 240.323 51.0541 240.408 50.627C240.493 50.1999 240.703 49.8077 241.011 49.5L252.819 37.693C253.023 37.4886 253.266 37.3266 253.533 37.216C253.8 37.1054 254.086 37.0485 254.375 37.0485C254.664 37.0485 254.95 37.1054 255.217 37.216C255.484 37.3266 255.727 37.4886 255.931 37.693C256.135 37.8973 256.297 38.1399 256.408 38.4069C256.519 38.6739 256.576 38.96 256.576 39.249C256.576 39.538 256.519 39.8241 256.408 40.0911C256.297 40.3581 256.135 40.6006 255.931 40.805L244.124 52.612C243.92 52.8168 243.677 52.9792 243.41 53.0899C243.143 53.2006 242.857 53.2574 242.568 53.257Z" fill="#F4F4F4"/>
<path d="M268.534 172.081C268.017 172.081 267.516 171.899 267.12 171.566L239.206 148.109L225.667 168.869C225.344 169.347 224.846 169.678 224.281 169.793C223.715 169.907 223.128 169.795 222.644 169.48C222.161 169.165 221.821 168.674 221.696 168.11C221.572 167.547 221.674 166.958 221.98 166.469L236.88 143.629C237.05 143.368 237.273 143.146 237.535 142.978C237.797 142.81 238.092 142.7 238.4 142.654C238.708 142.609 239.022 142.629 239.322 142.713C239.621 142.798 239.899 142.946 240.138 143.146L269.953 168.193C270.299 168.483 270.547 168.873 270.664 169.309C270.78 169.746 270.76 170.207 270.605 170.632C270.45 171.056 270.169 171.422 269.799 171.681C269.428 171.94 268.988 172.078 268.536 172.078" fill="#FF6464"/>
<path d="M184.17 178.625C183.79 178.625 183.417 178.526 183.087 178.339C182.756 178.152 182.48 177.883 182.284 177.557C182.089 177.232 181.981 176.861 181.971 176.481C181.962 176.102 182.05 175.726 182.229 175.391C182.392 175.083 182.605 174.719 182.851 174.297C187.566 166.762 189.415 157.782 188.06 148.997C187.169 142.674 186.64 126.029 186.618 125.323C186.6 124.74 186.814 124.173 187.213 123.747C187.613 123.322 188.165 123.072 188.749 123.054C189.332 123.036 189.899 123.25 190.325 123.65C190.75 124.049 191 124.602 191.018 125.185C191.023 125.355 191.561 142.297 192.418 148.385C193.885 158.15 191.842 168.119 186.651 176.519C186.429 176.899 186.237 177.227 186.115 177.458C185.927 177.811 185.647 178.106 185.304 178.312C184.962 178.518 184.57 178.626 184.17 178.626" fill="#FF6464"/>
<path d="M179.873 34.6599C175.62 22.8929 160.773 26.3469 160.773 26.3469C160.773 26.3469 132.612 10.5229 116.14 27.3209C106.432 37.2209 106.84 57.0159 113.104 72.7479C113.265 73.1463 113.311 73.5813 113.238 74.0044C113.165 74.4275 112.976 74.822 112.691 75.1437C112.407 75.4654 112.039 75.7016 111.628 75.826C111.217 75.9504 110.779 75.958 110.364 75.8479C101.788 73.5563 92.6915 74.2026 84.5255 77.6839C70.7685 83.4229 70.8255 94.5889 71.6125 99.5059C71.7222 100.193 71.606 100.897 71.2814 101.512C70.9568 102.127 70.4414 102.62 69.8125 102.917C65.8745 104.775 58.1195 109.344 55.6195 117.4C52.2115 128.381 56.8065 148.56 72.8875 144.829C77.5875 143.741 138.374 118.373 138.374 118.373L134.303 95.2369C154.827 99.2309 172.639 57.0209 172.639 57.0209C172.639 57.0209 185.173 49.3519 179.873 34.6599Z" fill="black"/>
<path d="M178.114 63.3509C177.887 62.2159 174.343 59.7739 172.794 58.7509C172.575 58.6085 172.398 58.4115 172.279 58.1795C172.159 57.9475 172.103 57.6885 172.115 57.4279C172.224 54.8829 172.385 50.8869 172.507 49.8499C173.307 43.0609 170.091 37.5499 167.194 34.0829C166.884 33.7173 166.475 33.4503 166.016 33.3152C165.556 33.1801 165.067 33.1828 164.61 33.3229C164.152 33.463 163.745 33.7344 163.44 34.1035C163.135 34.4725 162.945 34.9229 162.894 35.3989C162.341 40.4309 161.801 47.9299 159.633 50.7609C157.887 53.0409 154.769 53.5609 152.433 55.2079C152.285 55.3118 152.106 55.3604 151.927 55.345C151.747 55.3297 151.579 55.2514 151.452 55.1239C148.33 52.0019 143.516 51.7619 140.697 54.5819C137.878 57.4019 138.116 62.2159 141.234 65.3319C141.68 65.7798 142.174 66.1781 142.707 66.5199C143.499 67.0401 144.141 67.7599 144.568 68.6069C144.994 69.4539 145.19 70.3982 145.136 71.3449C144.874 76.8449 144.184 83.1629 141.997 88.3509C141.252 90.1196 139.976 91.6124 138.343 92.6214C136.711 93.6305 134.805 94.1057 132.891 93.9809C127.82 93.6479 123.391 93.4209 119.038 93.2149C118.912 93.2087 118.786 93.2346 118.673 93.2901C118.56 93.3457 118.463 93.4291 118.391 93.5324C118.319 93.6358 118.275 93.7559 118.262 93.8812C118.249 94.0065 118.268 94.1331 118.318 94.2489C121.093 100.779 129.561 116.857 146.511 115.966C163.298 115.085 167.656 102.691 169.455 97.7769C169.495 97.6687 169.51 97.5526 169.497 97.4378C169.485 97.3229 169.446 97.2125 169.383 97.1154C169.321 97.0183 169.236 96.9372 169.137 96.8784C169.038 96.8196 168.926 96.7849 168.811 96.7769C167.064 96.6479 163.311 96.3379 158.461 95.9419C158.266 95.9258 158.086 95.834 157.958 95.6863C157.831 95.5386 157.766 95.3467 157.779 95.1519L158.289 87.2969C158.3 87.1019 158.389 86.9195 158.535 86.7893C158.68 86.6592 158.871 86.5918 159.067 86.6019C161.058 86.7149 165.987 86.3949 169.674 83.2809C174.418 79.2749 174.504 72.0549 174.424 69.9809C174.409 69.6131 174.528 69.2524 174.76 68.9659C175.741 67.7559 178.334 64.4339 178.115 63.3379" fill="#FFB6B6"/>
<path d="M168.814 98.985C167.27 98.878 164.614 98.66 161.257 98.385L159.436 98.237C158.36 98.1446 157.363 97.6356 156.658 96.8187C155.952 96.0018 155.593 94.9416 155.658 93.864L156.094 87.164C156.146 86.3903 156.5 85.6682 157.08 85.1536C157.66 84.6391 158.419 84.3734 159.194 84.414C159.744 84.447 164.674 84.635 168.255 81.614C172.223 78.263 172.298 71.942 172.227 70.085C172.19 69.1838 172.483 68.3001 173.051 67.599C174.066 66.4036 174.97 65.1175 175.751 63.757C174.458 62.5808 173.063 61.5232 171.581 60.597C171.047 60.2438 170.613 59.7588 170.321 59.189C170.029 58.6192 169.889 57.9837 169.915 57.344L169.947 56.583C170.084 53.321 170.208 50.544 170.319 49.6C171.041 43.479 168.819 36.649 166.26 33.581C165.886 33.1329 165.705 32.5546 165.757 31.9732C165.81 31.3919 166.091 30.8551 166.539 30.481C166.987 30.1069 167.565 29.9261 168.147 29.9785C168.728 30.0308 169.265 30.3119 169.639 30.76C172.754 34.49 175.584 42.542 174.69 50.116C174.59 50.972 174.442 54.461 174.345 56.769L174.329 57.138C179.846 60.817 180.121 62.184 180.269 62.925C180.422 63.688 180.705 65.102 176.629 70.17C176.697 72.81 176.4 80.495 171.091 84.977C168.041 87.3952 164.282 88.7462 160.391 88.823L160.062 93.88L161.61 94.007C164.959 94.281 167.605 94.497 168.967 94.597C169.256 94.6074 169.54 94.6747 169.803 94.7949C170.066 94.9151 170.302 95.0859 170.499 95.2976C170.696 95.5093 170.849 95.7576 170.95 96.0285C171.051 96.2995 171.098 96.5876 171.087 96.8765C171.077 97.1654 171.01 97.4494 170.889 97.7124C170.769 97.9753 170.598 98.2119 170.387 98.4089C170.175 98.6058 169.927 98.759 169.656 98.86C169.385 98.9609 169.097 99.0074 168.808 98.997" fill="#441E2D"/>
<path d="M158.886 50.651C158.416 50.6516 157.958 50.5016 157.58 50.223C157.201 49.9445 156.922 49.552 156.782 49.103C156.643 48.6541 156.651 48.1724 156.806 47.7284C156.96 47.2845 157.253 46.9016 157.64 46.636C159.302 45.6272 161.199 45.069 163.142 45.0164C165.086 44.9638 167.009 45.4186 168.723 46.336C168.981 46.4662 169.211 46.6459 169.4 46.865C169.588 47.084 169.732 47.3381 169.822 47.6126C169.913 47.8872 169.948 48.1768 169.927 48.465C169.905 48.7533 169.827 49.0344 169.697 49.2925C169.567 49.5505 169.387 49.7804 169.168 49.969C168.949 50.1576 168.695 50.3011 168.42 50.3915C168.146 50.4819 167.856 50.5174 167.568 50.4958C167.28 50.4743 166.998 50.3962 166.74 50.266C165.727 49.7094 164.59 49.4177 163.434 49.4177C162.278 49.4177 161.141 49.7094 160.127 50.266C159.762 50.5169 159.329 50.6512 158.885 50.651" fill="#441E2D"/>
<path d="M173.043 75.182C171.374 75.1219 169.739 74.6867 168.26 73.9088C166.781 73.1308 165.497 72.0301 164.501 70.688C164.335 70.4517 164.217 70.1848 164.153 69.9027C164.09 69.6206 164.083 69.3287 164.132 69.0439C164.181 68.759 164.286 68.4866 164.441 68.2423C164.596 67.998 164.797 67.7866 165.033 67.62C165.27 67.4535 165.537 67.3352 165.819 67.2718C166.101 67.2084 166.393 67.2012 166.678 67.2506C166.962 67.3 167.235 67.4051 167.479 67.5597C167.723 67.7144 167.935 67.9157 168.101 68.152C168.689 68.9186 169.435 69.55 170.288 70.0036C171.141 70.4571 172.081 70.7223 173.045 70.781C173.629 70.781 174.188 71.0128 174.601 71.4254C175.014 71.838 175.245 72.3976 175.245 72.981C175.245 73.5645 175.014 74.1241 174.601 74.5367C174.188 74.9493 173.629 75.181 173.045 75.181L173.043 75.182Z" fill="#441E2D"/>
<path d="M158.342 88.752C156.842 88.588 150.566 87.735 147.991 85.445C147.775 85.2531 147.599 85.0205 147.472 84.7606C147.346 84.5006 147.273 84.2184 147.256 83.9299C147.239 83.6415 147.279 83.3526 147.373 83.0796C147.468 82.8066 147.616 82.555 147.808 82.339C147.999 82.1231 148.232 81.947 148.492 81.821C148.752 81.6949 149.034 81.6213 149.323 81.6043C149.611 81.5873 149.9 81.6273 150.173 81.7219C150.446 81.8166 150.698 81.9641 150.914 82.156C152.053 83.168 156.175 84.073 158.603 84.367C159.162 84.4304 159.676 84.7059 160.039 85.1369C160.401 85.5679 160.585 86.1216 160.551 86.6838C160.518 87.246 160.27 87.7739 159.859 88.1589C159.448 88.5439 158.905 88.7565 158.342 88.753" fill="#441E2D"/>
<path d="M122.221 84.637C121.84 84.6369 121.465 84.5373 121.135 84.348C111.715 78.993 109.416 75.178 109.186 74.761L113.035 72.629C113.035 72.622 115.04 75.821 123.311 80.524C123.733 80.764 124.064 81.1371 124.252 81.5852C124.441 82.0332 124.475 82.5309 124.351 83.0006C124.226 83.4703 123.95 83.8856 123.564 84.1817C123.179 84.4777 122.706 84.6378 122.221 84.637Z" fill="#FF6464"/>
<path d="M146.343 63.527C145.813 63.5271 145.302 63.3365 144.902 62.99L141.402 59.954C140.961 59.5715 140.69 59.0295 140.648 58.4472C140.607 57.8649 140.798 57.29 141.181 56.849C141.563 56.4079 142.105 56.1368 142.687 56.0954C143.27 56.054 143.845 56.2455 144.286 56.628L147.786 59.664C148.125 59.9577 148.366 60.3482 148.477 60.7829C148.588 61.2177 148.563 61.676 148.406 62.0963C148.25 62.5167 147.968 62.879 147.599 63.1348C147.23 63.3905 146.792 63.5273 146.344 63.527" fill="#441E2D"/>
<path d="M268.835 99.71C268.445 99.7101 268.062 99.6064 267.725 99.4096C267.388 99.2127 267.11 98.9299 266.918 98.59L256.376 79.89C256.177 79.5371 256.079 79.1361 256.093 78.7311C256.107 78.326 256.233 77.9329 256.457 77.5948C256.68 77.2568 256.993 76.9871 257.36 76.8154C257.727 76.6437 258.134 76.5768 258.537 76.622L347.537 86.558C347.875 86.5957 348.2 86.7113 348.486 86.8957C348.772 87.0801 349.011 87.3283 349.185 87.6208C349.358 87.9132 349.462 88.242 349.487 88.5813C349.512 88.9206 349.459 89.261 349.33 89.576L345.791 98.257C345.626 98.662 345.345 99.0087 344.982 99.2528C344.619 99.497 344.192 99.6276 343.755 99.628L307.368 99.669C307.079 99.6693 306.793 99.6127 306.526 99.5025C306.259 99.3922 306.016 99.2305 305.812 99.0264C305.399 98.6143 305.166 98.055 305.166 97.4715C305.165 96.888 305.396 96.3282 305.808 95.9151C306.22 95.5021 306.78 95.2697 307.363 95.269L342.274 95.232L344.157 90.613L262.324 81.477L270.124 95.307L290.711 95.286C291.295 95.286 291.854 95.5178 292.267 95.9304C292.679 96.3429 292.911 96.9025 292.911 97.486C292.911 98.0695 292.679 98.6291 292.267 99.0416C291.854 99.4542 291.295 99.686 290.711 99.686L268.838 99.709L268.835 99.71Z" fill="black"/>
<path d="M163.291 59.38C163.736 59.3181 164.147 59.1047 164.454 58.7756C164.761 58.4466 164.945 58.0219 164.976 57.573C165.088 56.8221 165.079 56.0579 164.948 55.31C164.74 54.128 164.091 53.458 163.168 53.472C162.898 53.4773 162.634 53.5429 162.393 53.664C162.152 53.7852 161.942 53.9588 161.778 54.172C161.258 55.0213 161.075 56.0345 161.265 57.012C161.353 57.7435 161.687 58.4232 162.213 58.94C162.505 59.216 162.89 59.372 163.292 59.377" fill="#441E2D"/>
<path d="M364.002 341H262.002C257.584 341 254.002 344.582 254.002 349V385C254.002 389.418 257.584 393 262.002 393H364.002C368.42 393 372.002 389.418 372.002 385V349C372.002 344.582 368.42 341 364.002 341Z" fill="white"/>
<path d="M372.002 400H254.002V411H372.002V400Z" fill="white"/>
<path d="M306.002 418H254.002V425H306.002V418Z" fill="white"/>
<path d="M372.002 418H320.002V425H372.002V418Z" fill="white"/>
<path d="M306.002 430H254.002V437H306.002V430Z" fill="white"/>
<path d="M372.002 430H320.002V437H372.002V430Z" fill="white"/>
<path d="M463.975 229.625C463.666 231.633 462.961 233.559 461.9 235.291C460.707 237.002 458.973 238.263 456.977 238.871C455.085 239.42 453.118 239.666 451.149 239.598C448.839 239.598 446.529 239.498 444.224 239.431C435.891 239.216 427.565 238.998 419.246 238.777C419.864 243.954 420.185 249.163 420.207 254.377C420.191 254.61 420.115 254.835 419.986 255.03C419.856 255.225 419.679 255.383 419.47 255.489C419.262 255.595 419.029 255.645 418.796 255.634C418.562 255.623 418.335 255.552 418.137 255.427C414.405 253.377 411.222 250.456 408.86 246.913C407.115 244.332 405.872 241.445 405.196 238.404C398.381 238.227 391.564 238.047 384.744 237.866C380.709 237.766 376.344 237.297 373.951 233.591C372.965 231.835 372.373 229.886 372.216 227.878C371.911 225.502 371.681 223.108 371.475 220.719C371.059 215.796 370.797 210.857 370.775 205.912C370.775 203.472 370.786 201.025 370.902 198.584C370.96 197.384 371.03 196.187 371.111 194.993C371.143 194.528 371.19 194.073 371.248 193.618C370.822 191.85 370.962 189.992 371.648 188.308C375.333 179.213 386.56 179.956 394.648 179.741L424.366 178.958C433.434 178.718 442.842 177.908 451.722 180.225C453.924 180.79 456.057 181.595 458.083 182.625C460.034 183.541 461.602 185.112 462.515 187.065C463.347 189.259 463.925 191.54 464.24 193.865C464.668 196.206 465.006 198.56 465.254 200.926C466.273 210.502 465.842 220.177 463.975 229.625Z" fill="#1D1D1B"/>
<path d="M450.209 207.739C449.562 205.721 448.314 203.95 446.631 202.661C444.949 201.373 442.913 200.63 440.796 200.532C439.682 200.458 438.565 200.632 437.527 201.042C436.488 201.452 435.553 202.087 434.789 202.902C434.62 203.061 434.518 203.28 434.506 203.513C434.494 203.745 434.573 203.973 434.725 204.149C435.904 205.382 436.744 206.899 437.162 208.553C437.581 210.207 437.564 211.941 437.113 213.586C436.722 215.265 435.904 216.815 434.738 218.086C434.168 218.693 433.51 219.21 432.785 219.62C432.388 219.924 431.887 220.06 431.39 219.999C430.918 219.844 430.646 219.245 430.446 218.835C429.386 216.651 429.329 214.135 429.18 211.758C429.171 209.349 428.682 206.966 427.742 204.748C426.772 202.85 425.288 201.261 423.46 200.163C421.632 199.065 419.533 198.501 417.401 198.536C415.038 198.662 412.774 199.53 410.931 201.016C409.088 202.502 407.76 204.531 407.135 206.814C407.093 206.95 407.087 207.095 407.118 207.235C407.149 207.374 407.215 207.503 407.311 207.609C407.407 207.715 407.528 207.794 407.664 207.839C407.8 207.883 407.944 207.892 408.084 207.864C410.336 207.359 412.75 206.777 415.057 207.279C415.928 207.433 416.749 207.789 417.456 208.319C418.163 208.849 418.735 209.539 419.126 210.331C419.897 212.182 418.908 214.083 417.816 215.562C416.579 217.234 415.179 218.78 413.636 220.176C412.261 221.54 410.497 222.445 408.587 222.766C407.269 222.96 405.926 222.652 404.823 221.903C406 221.458 407.046 220.724 407.865 219.77C409.672 217.553 408.957 214.783 407.933 212.386C407.381 211.096 406.723 209.854 405.965 208.673C406.524 206.918 406.647 205.053 406.324 203.24C406.292 203.109 406.227 202.989 406.135 202.891C406.043 202.793 405.928 202.72 405.8 202.679C405.672 202.638 405.535 202.631 405.404 202.658C405.272 202.685 405.149 202.745 405.047 202.833C404.221 203.426 403.424 204.056 402.654 204.718C401.143 203.316 399.31 202.308 397.316 201.783C392.632 200.619 386.605 202.844 385.382 207.908C385.182 208.72 386.418 209.137 386.623 208.319C387.588 204.461 391.805 202.577 395.515 202.899C397.781 203.15 399.902 204.134 401.556 205.702C398.421 208.631 395.851 212.113 393.977 215.974C392.895 218.213 392.305 221.428 395.116 222.652C396.302 223.058 397.563 223.195 398.808 223.052C399.947 223.011 401.081 222.884 402.2 222.671C402.5 222.612 402.8 222.544 403.1 222.471C403.134 222.506 403.161 222.544 403.2 222.579C403.921 223.258 404.785 223.768 405.728 224.071C406.671 224.373 407.67 224.462 408.651 224.329C410.788 224.041 412.784 223.099 414.365 221.633C416.114 220.1 417.694 218.384 419.075 216.514C420.357 214.805 421.375 212.668 420.837 210.488C420.51 209.418 419.924 208.446 419.13 207.658C418.337 206.87 417.36 206.29 416.288 205.971C413.954 205.342 411.495 205.342 409.161 205.971C409.946 204.109 411.317 202.554 413.065 201.541C414.814 200.528 416.845 200.113 418.85 200.359C420.856 200.604 422.727 201.497 424.179 202.902C425.631 204.307 426.586 206.147 426.898 208.143C427.355 210.607 427.262 213.127 427.578 215.607C427.723 216.82 428.021 218.009 428.465 219.147C428.633 219.718 428.914 220.248 429.292 220.707C429.67 221.166 430.137 221.544 430.665 221.817C432.626 222.573 434.891 220.767 436.136 219.395C438.056 217.237 439.157 214.475 439.249 211.589C439.34 208.702 438.416 205.875 436.636 203.601C439.018 201.66 442.536 202.088 445.057 203.71C448.629 206.004 449.399 210.479 448.392 214.375C447.722 216.9 446.54 219.26 444.921 221.31C444.145 222.294 445.778 223.35 446.547 222.375C449.725 218.344 451.813 212.862 450.219 207.738M405.56 210.938C406.603 212.896 408.091 215.561 407.26 217.813C406.916 218.527 406.417 219.157 405.801 219.656C405.185 220.156 404.466 220.513 403.695 220.702C402.377 218.535 403.473 215.651 404.277 213.469C404.624 212.526 405.005 211.564 405.354 210.586C405.419 210.704 405.488 210.821 405.554 210.939M404.795 207.019C404.468 206.602 404.129 206.195 403.77 205.807C404.163 205.474 404.563 205.149 404.97 204.832C404.995 205.565 404.937 206.299 404.797 207.019M397.365 221.538C396.329 221.499 395.05 221.299 394.674 220.165C394.463 219.013 394.676 217.824 395.274 216.817C397.061 213.028 399.568 209.623 402.655 206.792C403.258 207.452 403.813 208.153 404.316 208.892C403.808 210.509 403.106 212.092 402.57 213.6C401.714 216.01 401.026 218.815 402.152 221.12C400.58 221.46 398.97 221.599 397.362 221.535" fill="white"/>
<rect x="393.127" y="417" width="27" height="27" rx="8" fill="#80086D"/>
<path d="M407.116 436C405.901 436.006 404.696 435.783 403.572 435.346C402.448 434.908 401.427 434.265 400.568 433.452C400.286 433.185 400.127 432.823 400.127 432.445C400.127 432.068 400.285 431.706 400.567 431.439C400.85 431.172 401.232 431.022 401.632 431.021C402.031 431.021 402.414 431.171 402.696 431.438C403.276 431.986 403.966 432.42 404.724 432.715C405.483 433.01 406.296 433.159 407.116 433.155C407.936 433.159 408.749 433.01 409.508 432.715C410.267 432.42 410.956 431.986 411.536 431.438C411.675 431.301 411.841 431.192 412.024 431.117C412.208 431.042 412.406 431.002 412.606 431C412.807 430.998 413.005 431.034 413.191 431.106C413.376 431.177 413.545 431.283 413.686 431.417C413.828 431.551 413.94 431.71 414.015 431.885C414.091 432.061 414.129 432.248 414.127 432.438C414.125 432.627 414.083 432.814 414.003 432.988C413.924 433.162 413.808 433.319 413.664 433.45C412.805 434.263 411.784 434.907 410.66 435.344C409.536 435.781 408.332 436.004 407.116 435.998" fill="white"/>
</svg>
