<svg xmlns:xlink="http://www.w3.org/1999/xlink" xmlns="http://www.w3.org/2000/svg" width="146" height="160" viewBox="0 0 146 160" fill="none">
<circle cx="73" cy="87" r="73" fill="#EDEEF0"/>
<g clip-path="url(#clip0_0_1)">
<path d="M109.761 50.0909L120.672 50.0909L120.672 53.3264L109.761 53.3264L109.761 50.0909Z" fill="#C8C8C8"/>
<path d="M117.832 46.1771L119.02 46.1771L119.02 47.9633L117.832 47.9633L117.832 46.1771Z" fill="#9D9D9D"/>
<path d="M111.411 46.1771L112.6 46.1771L112.6 47.9633L111.411 47.9633L111.411 46.1771Z" fill="#9D9D9D"/>
<path d="M114.919 50.028L115.514 50.028L115.514 55.2625L114.919 55.2625L114.919 50.028Z" fill="#9D9D9D"/>
<path d="M123.658 52.6549L123.658 70.0984C123.659 70.664 123.548 71.2241 123.332 71.7468C123.117 72.2694 122.801 72.7443 122.402 73.1443C122.004 73.5442 121.53 73.8614 121.009 74.0776C120.488 74.2939 119.93 74.4049 119.366 74.4045L111.066 74.4045C110.502 74.4046 109.944 74.2932 109.423 74.0769C108.902 73.8605 108.429 73.5433 108.031 73.1435C107.632 72.7436 107.316 72.2689 107.1 71.7464C106.884 71.2239 106.773 70.6639 106.773 70.0984L106.773 52.6549L123.658 52.6549Z" fill="white"/>
<path d="M110.02 56.7845C110.021 56.8545 110.049 56.9215 110.099 56.9708C110.148 57.02 110.215 57.0475 110.285 57.0472L120.147 57.0472C120.182 57.0472 120.216 57.0404 120.248 57.0272C120.28 57.0139 120.309 56.9945 120.334 56.9699C120.358 56.9453 120.378 56.9161 120.391 56.884C120.404 56.8519 120.411 56.8175 120.411 56.7828L120.411 56.4935C120.411 56.4587 120.404 56.4243 120.391 56.3921C120.378 56.36 120.358 56.3308 120.334 56.3062C120.309 56.2815 120.28 56.262 120.248 56.2487C120.216 56.2354 120.182 56.2285 120.147 56.2285L110.285 56.2285C110.215 56.2285 110.148 56.2564 110.098 56.3061C110.049 56.3558 110.021 56.4231 110.021 56.4935L110.02 56.7845Z" fill="#546D7F"/>
<path d="M110.02 58.8706C110.02 58.941 110.048 59.0085 110.098 59.0584C110.147 59.1082 110.215 59.1364 110.285 59.1367L120.147 59.1367C120.217 59.1364 120.285 59.1082 120.334 59.0583C120.383 59.0084 120.411 58.9409 120.411 58.8706L120.411 58.5819C120.411 58.5116 120.383 58.4443 120.334 58.3945C120.284 58.3448 120.217 58.3166 120.147 58.3163L110.285 58.3163C110.215 58.3165 110.148 58.3445 110.098 58.3943C110.049 58.444 110.021 58.5115 110.021 58.5819L110.02 58.8706Z" fill="#546D7F"/>
<path d="M110.02 60.9579C110.02 61.0282 110.048 61.0956 110.098 61.1453C110.147 61.1949 110.215 61.2228 110.285 61.2228L120.147 61.2228C120.182 61.2228 120.216 61.216 120.248 61.2027C120.28 61.1893 120.309 61.1698 120.334 61.1452C120.358 61.1206 120.378 61.0914 120.391 61.0592C120.404 61.0271 120.411 60.9927 120.411 60.9579L120.411 60.6703C120.411 60.6001 120.383 60.5328 120.334 60.4831C120.284 60.4335 120.217 60.4055 120.147 60.4053L110.285 60.4053C110.251 60.4053 110.216 60.4121 110.184 60.4253C110.152 60.4386 110.123 60.4581 110.098 60.4827C110.073 60.5073 110.054 60.5365 110.04 60.5687C110.027 60.6009 110.02 60.6354 110.02 60.6703L110.02 60.9579Z" fill="#546D7F"/>
<path d="M110.02 63.0482C110.021 63.1184 110.049 63.1856 110.098 63.2351C110.148 63.2846 110.215 63.3125 110.285 63.3126L120.147 63.3126C120.217 63.3125 120.284 63.2845 120.334 63.235C120.383 63.1854 120.411 63.1183 120.411 63.0482L120.411 62.7583C120.411 62.6882 120.383 62.621 120.334 62.5714C120.284 62.5218 120.217 62.494 120.147 62.494L110.285 62.494C110.215 62.494 110.148 62.5218 110.099 62.5713C110.049 62.6209 110.021 62.6881 110.021 62.7583L110.02 63.0482Z" fill="#546D7F"/>
<path d="M28.6207 50.204L39.5312 50.204L39.5313 53.4395L28.6207 53.4395L28.6207 50.204Z" fill="#C8C8C8"/>
<path d="M36.6919 46.2902L37.8796 46.2902L37.8796 48.0764L36.6919 48.0764L36.6919 46.2902Z" fill="#9D9D9D"/>
<path d="M30.2711 46.2902L31.46 46.2902L31.46 48.0764L30.2711 48.0764L30.2711 46.2902Z" fill="#9D9D9D"/>
<path d="M33.7786 50.1411L34.3733 50.1411L34.3733 55.3757L33.7786 55.3757L33.7786 50.1411Z" fill="#9D9D9D"/>
<path d="M42.5178 52.7681L42.5178 70.2115C42.5183 70.7771 42.4076 71.3373 42.192 71.8599C41.9765 72.3826 41.6604 72.8574 41.2618 73.2574C40.8632 73.6573 40.3899 73.9745 39.869 74.1907C39.3481 74.407 38.7898 74.5181 38.2261 74.5176L29.9253 74.5176C29.3616 74.5177 28.8035 74.4064 28.2827 74.19C27.7619 73.9736 27.2888 73.6564 26.8902 73.2566C26.4916 72.8567 26.1754 72.382 25.9597 71.8595C25.744 71.337 25.6329 70.777 25.6329 70.2115L25.6329 52.7681L42.5178 52.7681Z" fill="white"/>
<path d="M28.8797 56.8976C28.8803 56.9677 28.9085 57.0347 28.9582 57.0839C29.0079 57.1331 29.075 57.1606 29.1449 57.1603L39.007 57.1603C39.0416 57.1604 39.0759 57.1536 39.1079 57.1403C39.1399 57.1271 39.169 57.1076 39.1935 57.083C39.218 57.0585 39.2374 57.0293 39.2506 56.9972C39.2638 56.9651 39.2706 56.9306 39.2705 56.8959L39.2705 56.6066C39.2706 56.5718 39.2638 56.5374 39.2506 56.5052C39.2374 56.4731 39.218 56.4439 39.1935 56.4193C39.1691 56.3947 39.14 56.3751 39.108 56.3618C39.076 56.3485 39.0417 56.3416 39.007 56.3416L29.1449 56.3416C29.0748 56.3416 29.0076 56.3695 28.958 56.4192C28.9083 56.4689 28.8804 56.5363 28.8802 56.6066L28.8797 56.8976Z" fill="#546D7F"/>
<path d="M28.8797 58.9837C28.8798 59.0542 28.9077 59.1217 28.9573 59.1715C29.0069 59.2214 29.0741 59.2495 29.1443 59.2498L39.007 59.2498C39.0771 59.2495 39.1442 59.2213 39.1936 59.1714C39.243 59.1216 39.2707 59.0541 39.2705 58.9837L39.2705 58.695C39.2705 58.6248 39.2428 58.5574 39.1934 58.5076C39.144 58.4579 39.077 58.4298 39.007 58.4295L29.1449 58.4295C29.0747 58.4296 29.0075 58.4576 28.9579 58.5074C28.9083 58.5572 28.8804 58.6246 28.8802 58.695L28.8797 58.9837Z" fill="#546D7F"/>
<path d="M28.8797 61.071C28.8798 61.1413 28.9078 61.2087 28.9574 61.2584C29.007 61.3081 29.0742 61.336 29.1443 61.336L39.007 61.336C39.0417 61.336 39.076 61.3291 39.108 61.3158C39.14 61.3025 39.1691 61.2829 39.1935 61.2583C39.218 61.2337 39.2374 61.2045 39.2506 61.1724C39.2638 61.1402 39.2706 61.1058 39.2705 61.071L39.2705 60.7834C39.2705 60.7132 39.2428 60.6459 39.1934 60.5963C39.144 60.5466 39.0769 60.5186 39.007 60.5185L29.1449 60.5185C29.0748 60.5185 29.0076 60.5464 28.958 60.596C28.9083 60.6457 28.8804 60.7131 28.8802 60.7834L28.8797 61.071Z" fill="#546D7F"/>
<path d="M28.8797 63.1613C28.8801 63.2315 28.9082 63.2987 28.9578 63.3482C29.0073 63.3977 29.0744 63.4256 29.1443 63.4257L39.007 63.4257C39.0768 63.4256 39.1438 63.3977 39.1932 63.3481C39.2425 63.2986 39.2704 63.2314 39.2705 63.1613L39.2705 62.8715C39.2705 62.8014 39.2427 62.7341 39.1933 62.6845C39.1439 62.6349 39.0769 62.6071 39.007 62.6071L29.1449 62.6071C29.0749 62.6071 29.0077 62.6349 28.9582 62.6845C28.9086 62.734 28.8805 62.8013 28.8802 62.8715L28.8797 63.1613Z" fill="#546D7F"/>
<path d="M74.6721 137.722C80.3753 137.727 86.0234 136.603 91.2933 134.415C96.5633 132.228 101.352 129.019 105.384 124.973C109.417 120.926 112.615 116.122 114.796 110.834C116.976 105.547 118.096 99.8799 118.092 94.1576L118.092 71.8736L112.393 71.8736L112.393 94.1565C112.393 104.194 108.419 113.821 101.345 120.918C94.2706 128.016 84.6762 132.003 74.6721 132.003C64.6679 132.003 55.0735 128.016 47.9995 120.918C40.9255 113.821 36.9514 104.194 36.9514 94.1565L36.9514 71.5968L31.2523 71.5968L31.2523 94.1576C31.2479 99.8799 32.3679 105.547 34.5484 110.834C36.7289 116.122 39.927 120.926 43.9598 124.973C47.9925 129.019 52.7809 132.228 58.0508 134.415C63.3207 136.603 68.9689 137.727 74.6721 137.722Z" fill="white"/>
</g>
<rect x="7" y="50.2279" width="50.2278" height="50.2278" rx="11.3418" transform="rotate(-90 7 50.2279)" fill="white"/>
<rect x="90" y="50.2278" width="50.2278" height="50.2278" rx="11.3418" transform="rotate(-90 90 50.2278)" fill="white"/>
<rect x="15.9109" y="9.72141" width="31.5949" height="31.5949" rx="10.3671" fill="#020202"/>
<path d="M40.1012 24.8569C40.1024 23.1784 39.6227 21.5354 38.7199 20.1254C37.817 18.7153 36.5295 17.5983 35.0121 16.9086C33.4947 16.2189 31.812 15.9859 30.1664 16.2376C28.5208 16.4893 26.9823 17.215 25.736 18.3275C24.4896 19.4399 23.5885 20.8917 23.1409 22.5083C22.6934 24.1249 22.7184 25.8375 23.2131 27.4401C23.7078 29.0426 24.651 30.467 25.9293 31.5419C27.2077 32.6168 28.7667 33.2964 30.419 33.499V36.8732L36.7966 31.7004C36.8779 31.634 36.9592 31.5684 37.0405 31.4996L37.2673 31.3151H37.2413C38.1408 30.5014 38.8604 29.5057 39.3531 28.393C39.8459 27.2803 40.1008 26.0755 40.1012 24.8569ZM31.5311 29.7706C30.8939 29.7719 30.2627 29.6462 29.6738 29.4007C29.0849 29.1552 28.5499 28.7948 28.0996 28.3401L28.9573 27.4753C29.6406 28.1623 30.5662 28.5481 31.5311 28.5481C32.496 28.5481 33.4216 28.1623 34.1049 27.4753L34.9626 28.3401C34.5123 28.7948 33.9773 29.1552 33.3884 29.4007C32.7995 29.6462 32.1683 29.7719 31.5311 29.7706Z" fill="white"/>
<g clip-path="url(#clip1_0_1)">
<path d="M109.704 31.4115C109.521 31.2486 109.299 31.1498 109.054 31.1426C108.222 31.117 106.874 31.0935 105.893 31.0783C105.335 31.0699 104.985 30.4773 105.246 29.9853C105.74 29.056 106.426 27.7631 106.761 27.1145C106.865 26.9129 106.895 26.6842 106.855 26.4609C106.621 25.134 106.636 23.739 107.003 22.3677C108.43 17.0438 114.418 14.0974 119.641 16.603C122.923 18.1774 124.956 21.6995 124.678 25.328C124.237 31.1042 118.691 34.8167 113.367 33.3902C112.005 33.0253 110.733 32.3318 109.704 31.4115Z" stroke="#131313" stroke-width="2" stroke-linecap="round" stroke-linejoin="round"/>
<path d="M113.329 20.3986C111.63 21.3855 112.072 23.7955 113.379 26.0596C114.686 28.3237 116.527 29.8686 118.232 28.8901L118.389 28.7992C119.073 28.4052 119.234 27.4885 118.726 26.885C118.561 26.6908 118.39 26.4857 118.207 26.2685C117.813 25.7972 117.134 25.6718 116.602 25.9774L116.314 26.1421C115.492 25.2972 115.146 24.6041 114.751 23.4347L115.038 23.2677C115.568 22.9585 115.798 22.3081 115.588 21.7311C115.491 21.4642 115.4 21.2132 115.313 20.9734C115.045 20.2318 114.17 19.9138 113.487 20.3078L113.329 20.3986Z" stroke="#131313" stroke-width="2" stroke-linecap="round" stroke-linejoin="round"/>
</g>
<defs>
<clipPath id="clip0_0_1">
<rect width="98.0253" height="91.5443" fill="white" transform="matrix(-1 3.17865e-08 3.17865e-08 1 123.658 46.1771)"/>
</clipPath>
<clipPath id="clip1_0_1">
<rect width="24" height="24" fill="white" transform="translate(107.211 10) rotate(15)"/>
</clipPath>
</defs>
</svg>